<svg viewBox="0 0 267 78" xmlns="http://www.w3.org/2000/svg" xmlns:xlink="http://www.w3.org/1999/xlink"><linearGradient id="a" gradientUnits="userSpaceOnUse" x1="37.3" x2="5.47" y1="18.43" y2="50.26"><stop offset="0" stop-color="#ffadf6"/><stop offset=".14" stop-color="#f7b6fc"/><stop offset=".2" stop-color="#f2bcff"/><stop offset=".59" stop-color="#db73ff"/><stop offset=".88" stop-color="#9d76ff"/></linearGradient><path d="m44 34a19.21 19.21 0 0 0 -18.91-6.56 18.16 18.16 0 0 0 -4.12 1.38v-26.76h-11.62v37.88a61.7 61.7 0 0 0 -4.73 5.26c-.48.58-1.93 1.91-2.11 2.1l7.25 7.25c.39-.39 1-1.18 1.7-2a23.27 23.27 0 0 0 1.61 3.13s0 0 0 .06a6.64 6.64 0 0 0 .55.73c2.4 2.78 7 6.08 15.17 6.08s14.53-3.84 17.39-10.28a17.44 17.44 0 0 0 -2.18-18.27zm-15.18 20.67a9.47 9.47 0 0 1 -9.47-9.47c0-.12 0-.23 0-.35a3.75 3.75 0 0 1 0-.48 9.63 9.63 0 0 1 .44-2.16 9.39 9.39 0 0 1 1.21-2.31l.08-.11a9.47 9.47 0 1 1 7.77 14.88z" fill="url(#a)"/><path d="m21 39.9a9.39 9.39 0 0 0 -1.13 2.29l-6.8 13.5a23.27 23.27 0 0 1 -1.61-3.13z" opacity=".2"/><path d="m9.35 39.94s5.26-8.42 11.58-11.21" fill="none" opacity=".1" stroke="#000" stroke-miterlimit="10" stroke-width=".03"/><g fill="#fff"><path d="m73.52 62.28-2.09-4.18h-.22a12.44 12.44 0 0 1 -4.48 3.73 14.77 14.77 0 0 1 -5.9 1 9.24 9.24 0 0 1 -7-2.67q-2.57-2.67-2.56-7.51 0-5 3.5-7.5t10.16-2.77l5.26-.17v-.44q0-3.9-3.84-3.9a23 23 0 0 0 -8.77 2.34l-3.15-7.21q5.51-2.84 13.91-2.84 6.07 0 9.39 3t3.33 8.4v20.72zm-8.07-7.13a4.88 4.88 0 0 0 3.38-1.25 4.14 4.14 0 0 0 1.4-3.26v-2.44l-2.5.11c-3.58.13-5.37 1.44-5.37 3.95 0 1.93 1.03 2.89 3.09 2.89z"/><path d="m103.27 62.83q-7.72 0-11.72-4.17t-4-12q0-7.86 4.32-12.16t12.27-4.32a22.94 22.94 0 0 1 10.32 2.4l-3.2 8a33.61 33.61 0 0 0 -3.64-1.38 11.92 11.92 0 0 0 -3.48-.52 4.7 4.7 0 0 0 -4.09 2.06 10 10 0 0 0 -1.45 5.82q0 7.57 5.59 7.57a17 17 0 0 0 9.19-2.78v8.65a17.87 17.87 0 0 1 -10.11 2.83z"/><path d="m130.64 44.55a56.47 56.47 0 0 1 3.37-4.9l7.06-8.9h12.14l-10.94 13.41 11.63 18.12h-12.44l-6.9-11.28-3.56 2.68v8.6h-10.91v-43.28h10.91v17a59.92 59.92 0 0 1 -.61 8.54z"/><path d="m177.37 38.9h-6.71v23.38h-10.88v-23.38h-4.17v-5.34l4.4-2.67v-.53c0-4.16.85-7.14 2.54-9s4.42-2.73 8.17-2.73a23.3 23.3 0 0 1 4.1.34 32.1 32.1 0 0 1 4.5 1.17l-2.34 7a14.28 14.28 0 0 0 -3.92-.56 2.13 2.13 0 0 0 -1.83.76 4.23 4.23 0 0 0 -.57 2.49v.84h6.71zm15.16 23.38h-10.87v-43.28h10.87z"/><path d="m200.28 22.9a4.61 4.61 0 0 1 1.36-3.64 6.59 6.59 0 0 1 4.4-1.2 6.66 6.66 0 0 1 4.43 1.22 4.61 4.61 0 0 1 1.39 3.62q0 4.79-5.82 4.79t-5.76-4.79zm11.16 39.38h-10.88v-31.53h10.88z"/><path d="m238.41 62.83a9.82 9.82 0 0 1 -8-3.64h-.5a37.89 37.89 0 0 1 .5 4.12v12.69h-10.92v-45.25h8.85l1.53 4h.5a10 10 0 0 1 16.63-.22q3 4.35 3 11.91t-3.1 12a9.79 9.79 0 0 1 -8.49 4.39zm-3.64-24.1a3.51 3.51 0 0 0 -3.35 1.72 11.23 11.23 0 0 0 -1 5.07v.87c0 2.71.36 4.66 1.09 5.87a3.7 3.7 0 0 0 3.42 1.81 3.18 3.18 0 0 0 3-1.8 13.55 13.55 0 0 0 1-5.94 13.15 13.15 0 0 0 -1-5.83 3.28 3.28 0 0 0 -3.16-1.77z"/><path d="m255.23 57.66a5.08 5.08 0 0 1 1.52-3.95 6.29 6.29 0 0 1 4.41-1.4 5.91 5.91 0 0 1 4.23 1.4 5.16 5.16 0 0 1 1.47 3.95 5.07 5.07 0 0 1 -1.51 3.91 6 6 0 0 1 -4.19 1.4 6.34 6.34 0 0 1 -4.34-1.39 4.93 4.93 0 0 1 -1.59-3.92z"/></g></svg>