<svg xmlns:dc="http://purl.org/dc/elements/1.1/" xmlns:cc="http://creativecommons.org/ns#" xmlns:rdf="http://www.w3.org/1999/02/22-rdf-syntax-ns#" xmlns:svg="http://www.w3.org/2000/svg" xmlns="http://www.w3.org/2000/svg" viewBox="0 0 280 280" fill="none"><metadata><rdf:RDF><cc:Work><dc:format>image/svg+xml</dc:format><dc:type rdf:resource="http://purl.org/dc/dcmitype/StillImage"/><dc:title>Avataaars</dc:title><dc:creator><cc:Agent><dc:title>Pablo Stanley</dc:title></cc:Agent></dc:creator><dc:source>https://avataaars.com/</dc:source><cc:license rdf:resource="https://avataaars.com/"/><dc:contributor><cc:Agent><dc:title>Florian Körner</dc:title></cc:Agent></dc:contributor></cc:Work></rdf:RDF></metadata><mask id="avatarsRadiusMask"><rect width="280" height="280" rx="0" ry="0" x="0" y="0" fill="#fff"/></mask><g mask="url(#avatarsRadiusMask)"><g transform="translate(40, 36)"><path d="M100 0C69.072 0 44 25.072 44 56v6.166c-5.675.952-10 5.888-10 11.834v14c0 6.052 4.48 11.058 10.305 11.881 2.067 19.806 14.458 36.541 31.695 44.73V163h-4c-39.764 0-72 32.236-72 72v9h200v-9c0-39.764-32.236-72-72-72h-4v-18.389c17.237-8.189 29.628-24.924 31.695-44.73C161.52 99.058 166 94.052 166 88V74c0-5.946-4.325-10.882-10-11.834V56c0-30.928-25.072-56-56-56z" fill="#EDB98A"/><path d="M76 144.611v8A55.79 55.79 0 00100 158a55.789 55.789 0 0024-5.389v-8A55.789 55.789 0 01100 150a55.79 55.79 0 01-24-5.389z" fill="#000" fill-opacity=".1"/></g><g transform="translate(8, 170)"><path d="M132.5 51.828c18.502 0 33.5-9.617 33.5-21.48 0-.353-.013-.704-.04-1.053 36.976 3.03 66.04 34 66.04 71.757V110H32v-8.948c0-38.1 29.592-69.287 67.045-71.833-.03.374-.045.75-.045 1.129 0 11.863 14.998 21.48 33.5 21.48z" fill="#B1E2FF"/><path d="M132.5 58.761c21.89 0 39.635-12.05 39.635-26.913 0-.603-.029-1.2-.086-1.793a72.056 72.056 0 00-6.089-.76c.027.349.04.7.04 1.053 0 11.863-14.998 21.48-33.5 21.48-18.502 0-33.5-9.617-33.5-21.48 0-.379.015-.755.045-1.128-2.05.139-4.077.364-6.077.672a18.592 18.592 0 00-.103 1.956c0 14.864 17.745 26.913 39.635 26.913z" fill="#000" fill-opacity=".08"/></g><g transform="translate(86, 134)"><path fill-rule="evenodd" clip-rule="evenodd" d="M35.118 29.872C36.176 20.38 44.226 13 54 13c9.804 0 17.874 7.426 18.892 16.96.082.767-.775 2.04-1.85 2.04H37.088c-1.08 0-2.075-1.178-1.97-2.128z" fill="#000" fill-opacity=".7"/><path d="M69.586 32H38.414c1.306-4.617 5.55-8 10.586-8 1.8 0 3.5.433 5 1.2 1.5-.767 3.2-1.2 5-1.2 5.035 0 9.28 3.383 10.586 8z" fill="#FF4F6D"/><path d="M66.567 17.75c-.493.162-1.02.25-1.567.25H44a4.98 4.98 0 01-2.243-.53A18.923 18.923 0 0154 13c4.818 0 9.218 1.794 12.567 4.75z" fill="#fff"/></g><g transform="translate(112, 122)"><path fill-rule="evenodd" clip-rule="evenodd" d="M16 8c0 4.418 5.373 8 12 8s12-3.582 12-8" fill="#000" fill-opacity=".16"/></g><g transform="translate(84, 90)"><path fill-rule="evenodd" clip-rule="evenodd" d="M16.16 27.553C18.007 31.352 22.164 34 26.998 34c4.816 0 8.961-2.63 10.817-6.407.552-1.122-.233-2.04-1.024-1.36-2.451 2.107-5.932 3.423-9.793 3.423-3.74 0-7.124-1.235-9.56-3.228-.891-.728-1.818.014-1.278 1.125zm58 0C76.007 31.352 80.164 34 84.998 34c4.816 0 8.961-2.63 10.817-6.407.552-1.122-.233-2.04-1.024-1.36-2.451 2.107-5.932 3.423-9.793 3.423-3.74 0-7.124-1.235-9.56-3.228-.891-.728-1.818.014-1.278 1.125z" fill="#000" fill-opacity=".6"/></g><g transform="translate(84, 82)"><path d="M38.028 5.591c-1.48 8.389-14.09 14.18-23.238 10.432-1.015-.416-2.19.031-2.627.999-.436.968.033 2.09 1.048 2.505 11.444 4.69 26.835-2.38 28.762-13.303.183-1.039-.551-2.023-1.64-2.197-1.09-.175-2.121.525-2.305 1.564zm35.945 0c1.48 8.389 14.09 14.18 23.238 10.432 1.014-.416 2.19.031 2.627.999.436.968-.033 2.09-1.048 2.505-11.444 4.69-26.835-2.38-28.762-13.303-.183-1.039.551-2.023 1.64-2.197 1.09-.175 2.121.525 2.305 1.564z" fill="#000" fill-opacity=".6"/></g><g transform="translate(7, 0)"><path fill-rule="evenodd" clip-rule="evenodd" d="M183.68 38.949c5.406-4.95 6.707-14.987 3.638-21.5-3.769-7.995-11.417-8.997-18.746-5.48-6.908 3.315-13.057 4.419-20.622 2.813-7.258-1.541-14.144-4.26-21.647-4.706-12.325-.733-24.3 3.839-32.7 13.053-1.603 1.758-2.894 3.768-4.115 5.805-.977 1.63-2.078 3.38-2.493 5.258-.198.894.17 3.098-.275 3.83-.48.79-2.296 1.515-3.069 2.102-1.567 1.188-2.924 2.53-4.18 4.047-2.666 3.222-4.133 6.587-5.368 10.572-4.102 13.245-4.45 28.998.854 42.004.707 1.734 2.898 5.352 4.186 1.638.255-.734-.334-3.194-.333-3.935.005-2.72 1.506-20.729 8.047-30.817 2.13-3.284 11.973-15.58 13.984-15.68 1.065 1.693 11.88 12.51 39.942 11.242 12.662-.572 22.4-6.26 24.738-8.727 1.028 5.533 12.992 13.816 14.815 17.224 5.267 9.846 6.435 30.304 8.445 30.265 2.01-.038 3.453-5.237 3.867-6.23 3.072-7.375 3.595-16.632 3.267-24.559-.427-10.202-4.638-21.226-12.235-28.22z" fill="#F59797"/></g></g></svg>